<svg width="16" height="18" viewBox="0 0 16 18" fill="none" xmlns="http://www.w3.org/2000/svg">
<path fill-rule="evenodd" clip-rule="evenodd" d="M2.35327 5.5C2.35327 2.73858 4.59185 0.5 7.35327 0.5C10.1147 0.5 12.3533 2.73858 12.3533 5.5C12.3533 8.26142 10.1147 10.5 7.35327 10.5C4.59185 10.5 2.35327 8.26142 2.35327 5.5ZM7.35327 8.5C5.69642 8.5 4.35327 7.15685 4.35327 5.5C4.35327 3.84315 5.69642 2.5 7.35327 2.5C9.01013 2.5 10.3533 3.84315 10.3533 5.5C10.3533 7.15685 9.01013 8.5 7.35327 8.5Z" fill="#3479EE"/>
<path d="M0.5 9.62943C1.75216 11.7031 3.9189 13.1624 6.44141 13.4486V15.5H4.35327V17.5H10.3533V15.5H8.44141V13.4266C12.3449 12.8958 15.3532 9.54919 15.3532 5.50001C15.3532 3.93638 14.9046 2.47752 14.1291 1.24512L12.4253 2.29326C13.013 3.22084 13.3532 4.32069 13.3532 5.50001C13.3532 8.81371 10.667 11.5 7.35324 11.5C5.16611 11.5 3.25231 10.3298 2.20381 8.58128L0.5 9.62943Z" fill="#3479EE"/>
</svg>
